<svg width="58" height="59" viewBox="0 0 58 59" fill="none" xmlns="http://www.w3.org/2000/svg">
<g clip-path="url(#clip0_6_256)">
<path d="M45.8321 21.0203L57.9855 8.86693L54.5321 5.41351L42.3376 17.6056L37.0064 12.3953C36.1316 11.545 34.9689 11.0548 33.7494 11.0221C32.5298 10.9894 31.3426 11.4166 30.4234 12.2188C25.9376 16.2809 20.7187 19.4509 15.0462 21.5593L-0.0144958 25.9745V27.8015C0.0849531 36.0495 3.45114 43.9214 9.34593 49.6911C15.2407 55.4609 23.183 58.6576 31.4312 58.5802H34.4303L35.061 58.1403C39.9883 54.9816 44.0763 50.6753 46.9746 45.5904C49.8729 40.5056 51.4951 34.7938 51.7022 28.9446C51.7205 28.2711 51.5987 27.601 51.3446 26.977C51.0904 26.353 50.7093 25.7886 50.2256 25.3196L45.8321 21.0203ZM33.5917 15.8873L46.8278 28.7948C46.7555 31.2591 46.3855 33.7056 45.7258 36.081L28.8574 19.6573C30.4983 18.4816 32.0784 17.2233 33.5917 15.8873ZM32.8812 53.6961H31.4312C27.8697 53.6964 24.3436 52.9908 21.0564 51.6202C25.28 49.4981 28.8956 46.3383 31.5641 42.4368L32.8159 40.6002L28.7825 37.8548L27.5307 39.6939C25.3244 42.9116 22.3376 45.5168 18.85 47.2653L15.8799 48.7588C13.4651 47.059 11.3533 44.9651 9.63284 42.5649C13.5747 41.2304 17.171 39.0372 20.1623 36.1438L16.7523 32.6518C14.0515 35.2681 10.7558 37.1896 7.1485 38.2512C5.8973 35.5271 5.14351 32.6011 4.92275 29.6116L16.414 26.2428C19.32 25.3098 22.0988 24.019 24.6863 22.4003L43.8045 41.0086C41.2765 46.0798 37.5238 50.4405 32.886 53.6961H32.8812Z" fill="#ED5B09"/>
</g>
<defs>
<clipPath id="clip0_6_256">
<rect width="58" height="58" fill="white" transform="translate(0 0.565674)"/>
</clipPath>
</defs>
</svg>
