<svg width="58" height="59" viewBox="0 0 58 59" fill="none" xmlns="http://www.w3.org/2000/svg">
<path d="M35.8416 41.649C35.2229 41.649 34.6043 41.4122 34.133 40.9409C33.1881 39.996 33.1881 38.4687 34.133 37.5238L40.3753 31.2815C40.8296 30.8248 41.0833 30.2182 41.0833 29.5705C41.0833 28.9228 40.832 28.3187 40.3753 27.8619L34.133 21.6173C33.1881 20.6723 33.1881 19.1426 34.133 18.2001C35.0779 17.2552 36.6053 17.2552 37.5502 18.2001L43.7924 24.4423C45.1603 25.8102 45.9167 27.6323 45.9167 29.5681C45.9167 31.5038 45.1627 33.326 43.7924 34.6963L37.5502 40.9385C37.0789 41.4098 36.4603 41.649 35.8416 41.649ZM23.867 40.9288C24.8119 39.9839 24.8119 38.4566 23.867 37.5117L17.6248 31.2694C17.168 30.8127 16.9167 30.2061 16.9167 29.5584C16.9167 28.9108 17.168 28.3066 17.6248 27.8498L23.867 21.6076C24.8119 20.6627 24.8119 19.1353 23.867 18.1904C22.9221 17.2455 21.3948 17.2455 20.4498 18.1904L14.2076 24.4327C12.8373 25.8029 12.0833 27.6227 12.0833 29.5608C12.0833 31.499 12.8373 33.3188 14.2076 34.689L20.4498 40.9313C20.9211 41.4025 21.5397 41.6393 22.1584 41.6393C22.7771 41.6393 23.3958 41.4001 23.867 40.9288ZM58 46.4823V12.649C58 5.98626 52.5794 0.565674 45.9167 0.565674H12.0833C5.42058 0.565674 0 5.98626 0 12.649V46.4823C0 53.1451 5.42058 58.5657 12.0833 58.5657H45.9167C52.5794 58.5657 58 53.1451 58 46.4823ZM45.9167 5.39901C49.9138 5.39901 53.1667 8.65184 53.1667 12.649V46.4823C53.1667 50.4795 49.9138 53.7323 45.9167 53.7323H12.0833C8.08617 53.7323 4.83333 50.4795 4.83333 46.4823V12.649C4.83333 8.65184 8.08617 5.39901 12.0833 5.39901H45.9167Z" fill="black"/>
</svg>
