<svg width="58" height="59" viewBox="0 0 58 59" fill="none" xmlns="http://www.w3.org/2000/svg">
<path d="M43.9858 23.3524L45.0829 21.2403C45.9843 19.5003 46.1487 17.521 45.5445 15.6578C44.9403 13.7945 43.6426 12.2889 41.9823 11.4624L27.0981 3.20469C17.5619 -1.7519 10.3965 1.3946 6.97691 3.70977C5.53416 4.68369 4.73666 6.30044 4.843 8.03319C4.94691 9.74419 5.92083 11.2329 7.44333 12.0207L17.168 17.26L0.758831 48.0894C-0.988419 51.6057 0.422915 55.9364 3.90775 57.7489C4.95658 58.295 6.09483 58.5681 7.24033 58.5681C7.99675 58.5681 8.758 58.4497 9.49992 58.208C11.3632 57.599 12.8712 56.2964 13.7097 54.6024L29.9183 24.1306L34.2611 26.4699C35.3075 27.004 36.4264 27.2578 37.5332 27.2578C40.1577 27.2578 42.7001 25.8295 43.9882 23.3549L43.9858 23.3524ZM9.4105 52.3911C9.1205 52.9759 8.62025 53.4085 7.99916 53.6115C7.37566 53.8145 6.71591 53.7614 6.13591 53.4593C4.97591 52.8575 4.50466 51.4124 5.05566 50.3007L21.4237 19.5534L25.6626 21.8372L9.4105 52.3911ZM40.7933 19.0121L39.6986 21.1243C39.0872 22.2964 37.6275 22.7628 36.5062 22.1852L9.715 7.75527C9.7005 7.74802 9.70291 7.71902 9.686 7.71177C11.484 6.49377 13.978 5.3966 17.1027 5.3966C19.3527 5.3966 21.9288 5.96452 24.8119 7.46044L39.73 15.7351C40.3124 16.0275 40.745 16.5278 40.948 17.1489C41.1486 17.7699 41.0954 18.4297 40.7933 19.0121ZM58 15.0657C58 16.4021 56.9198 17.4824 55.5833 17.4824H53.1667C51.8303 17.4824 50.75 16.4021 50.75 15.0657C50.75 13.7293 51.8303 12.649 53.1667 12.649H55.5833C56.9198 12.649 58 13.7293 58 15.0657ZM48.4614 32.9104C49.2855 33.9616 49.1018 35.4769 48.0482 36.3009C47.6059 36.6489 47.0839 36.8157 46.5619 36.8157C45.8442 36.8157 45.1337 36.4967 44.6576 35.8877L42.7653 33.471C41.9412 32.4198 42.1249 30.9045 43.1786 30.0804C44.2274 29.2539 45.7451 29.44 46.5692 30.4937L48.4614 32.9104ZM55.5616 27.1273C55.1169 27.9127 54.3001 28.3574 53.4543 28.3574C53.0531 28.3574 52.6447 28.2583 52.2701 28.0456L50.1241 26.8373C48.9641 26.1824 48.5508 24.7082 49.2058 23.5458C49.8607 22.3882 51.3324 21.9677 52.4972 22.6274L54.6433 23.8358C55.8033 24.4907 56.2165 25.9649 55.5616 27.1273Z" fill="#A39200"/>
</svg>
