<svg width="58" height="59" viewBox="0 0 58 59" fill="none" xmlns="http://www.w3.org/2000/svg">
<path d="M41.1528 10.687C37.8386 8.22742 34.4249 5.67595 30.9699 2.66026L29.0006 0.947998L27.0674 2.66264C20.8476 8.12345 17.9091 16.5081 16.6331 21.5384C15.6565 20.2129 14.9318 18.7575 14.4872 17.2289L13.3189 13.2796L9.92191 16.0754C3.96986 20.9677 0.00109334 25.8215 0.00109334 33.5942C-0.11323 45.1296 8.74874 55.2544 21.4994 58.1556C23.3665 58.5533 25.2724 58.7962 27.1915 58.8811C27.822 58.9211 29.6274 58.9609 29.9368 58.944C45.5798 58.532 58.0131 47.3029 58 33.5989C58 23.2144 50.1923 17.4101 41.1528 10.687ZM29.5355 54.0759C29.2464 54.0978 28.9835 54.1001 28.6909 54.0977C23.5265 53.9594 19.4181 50.2592 19.4055 45.7349C19.4055 42.6702 21.2825 41.1426 25.5305 37.9764C26.6014 37.1788 27.7663 36.3111 28.9918 35.3177C30.0655 36.1708 31.1088 36.9443 32.0722 37.6621C36.3394 40.8332 38.5669 42.6339 38.5669 45.7276C38.5573 50.1659 34.5962 53.8274 29.5355 54.0759ZM43.3918 49.7954L43.3366 49.8292C43.832 48.5076 44.0854 47.1257 44.0873 45.7348C44.0873 40.2604 39.9856 37.21 35.6466 33.9834C34.1092 32.8426 32.5221 31.6631 30.9377 30.2757L28.9835 28.5668L27.032 30.2757C25.2434 31.8395 23.4934 33.1446 21.9504 34.2951C17.6224 37.5194 13.8822 40.3062 13.8822 45.7348C13.8881 47.1854 14.1679 48.6253 14.7104 49.9959C8.88613 46.0797 5.48678 40.005 5.52164 33.5749C5.47628 29.3336 7.35094 25.2491 10.7356 22.215C11.3187 23.2507 12.0098 24.237 12.8003 25.1614C13.9802 26.5556 15.9936 27.2024 17.9233 26.8073C19.8851 26.4248 21.4103 25.0733 21.8235 23.351C22.9793 17.7959 25.479 12.5217 29.1547 7.88227C32.0667 10.2992 34.9512 12.4383 37.5541 14.3743C46.1991 20.8035 52.4593 25.449 52.4593 33.5894C52.4731 39.9314 49.1218 45.9192 43.3892 49.7954H43.3918Z" fill="#A30000"/>
</svg>
