<svg width="58" height="59" viewBox="0 0 58 59" fill="none" xmlns="http://www.w3.org/2000/svg">
<path d="M26.5833 34.399C26.5833 35.7354 25.5007 36.8157 24.1667 36.8157H21.75C20.416 36.8157 19.3333 35.7354 19.3333 34.399C19.3333 33.0626 20.416 31.9823 21.75 31.9823H24.1667C25.5007 31.9823 26.5833 33.0626 26.5833 34.399ZM36.25 31.9823H33.8333C32.4993 31.9823 31.4167 33.0626 31.4167 34.399C31.4167 35.7354 32.4993 36.8157 33.8333 36.8157H36.25C37.584 36.8157 38.6667 35.7354 38.6667 34.399C38.6667 33.0626 37.584 31.9823 36.25 31.9823ZM24.1667 41.649H21.75C20.416 41.649 19.3333 42.7293 19.3333 44.0657C19.3333 45.4021 20.416 46.4823 21.75 46.4823H24.1667C25.5007 46.4823 26.5833 45.4021 26.5833 44.0657C26.5833 42.7293 25.5007 41.649 24.1667 41.649ZM36.25 41.649H33.8333C32.4993 41.649 31.4167 42.7293 31.4167 44.0657C31.4167 45.4021 32.4993 46.4823 33.8333 46.4823H36.25C37.584 46.4823 38.6667 45.4021 38.6667 44.0657C38.6667 42.7293 37.584 41.649 36.25 41.649ZM24.1667 12.649H21.75C20.416 12.649 19.3333 13.7293 19.3333 15.0657C19.3333 16.4021 20.416 17.4823 21.75 17.4823H24.1667C25.5007 17.4823 26.5833 16.4021 26.5833 15.0657C26.5833 13.7293 25.5007 12.649 24.1667 12.649ZM36.25 12.649H33.8333C32.4993 12.649 31.4167 13.7293 31.4167 15.0657C31.4167 16.4021 32.4993 17.4823 33.8333 17.4823H36.25C37.584 17.4823 38.6667 16.4021 38.6667 15.0657C38.6667 13.7293 37.584 12.649 36.25 12.649ZM24.1667 22.3157H21.75C20.416 22.3157 19.3333 23.3959 19.3333 24.7323C19.3333 26.0688 20.416 27.149 21.75 27.149H24.1667C25.5007 27.149 26.5833 26.0688 26.5833 24.7323C26.5833 23.3959 25.5007 22.3157 24.1667 22.3157ZM36.25 22.3157H33.8333C32.4993 22.3157 31.4167 23.3959 31.4167 24.7323C31.4167 26.0688 32.4993 27.149 33.8333 27.149H36.25C37.584 27.149 38.6667 26.0688 38.6667 24.7323C38.6667 23.3959 37.584 22.3157 36.25 22.3157ZM58 24.7323V46.4823C58 53.1451 52.5794 58.5657 45.9167 58.5657H12.0833C5.42058 58.5657 0 53.1451 0 46.4823V34.399C0 28.5628 4.15908 23.6811 9.66667 22.5598V12.649C9.66667 5.98626 15.0873 0.565674 21.75 0.565674H36.25C42.9128 0.565674 48.3333 5.98626 48.3333 12.649V12.8931C53.8409 14.0168 58 18.8961 58 24.7323ZM53.1667 24.7323C53.1667 20.7352 49.9138 17.4823 45.9167 17.4823C44.5827 17.4823 43.5 16.4021 43.5 15.0657V12.649C43.5 8.65184 40.2472 5.39901 36.25 5.39901H21.75C17.7528 5.39901 14.5 8.65184 14.5 12.649V24.7323C14.5 26.0688 13.4173 27.149 12.0833 27.149C8.08617 27.149 4.83333 30.4018 4.83333 34.399V46.4823C4.83333 50.4795 8.08617 53.7323 12.0833 53.7323H45.9167C49.9138 53.7323 53.1667 50.4795 53.1667 46.4823V24.7323ZM45.9167 31.9823H43.5C42.166 31.9823 41.0833 33.0626 41.0833 34.399C41.0833 35.7354 42.166 36.8157 43.5 36.8157H45.9167C47.2507 36.8157 48.3333 35.7354 48.3333 34.399C48.3333 33.0626 47.2507 31.9823 45.9167 31.9823ZM45.9167 41.649H43.5C42.166 41.649 41.0833 42.7293 41.0833 44.0657C41.0833 45.4021 42.166 46.4823 43.5 46.4823H45.9167C47.2507 46.4823 48.3333 45.4021 48.3333 44.0657C48.3333 42.7293 47.2507 41.649 45.9167 41.649ZM14.5 31.9823H12.0833C10.7493 31.9823 9.66667 33.0626 9.66667 34.399C9.66667 35.7354 10.7493 36.8157 12.0833 36.8157H14.5C15.834 36.8157 16.9167 35.7354 16.9167 34.399C16.9167 33.0626 15.834 31.9823 14.5 31.9823ZM14.5 41.649H12.0833C10.7493 41.649 9.66667 42.7293 9.66667 44.0657C9.66667 45.4021 10.7493 46.4823 12.0833 46.4823H14.5C15.834 46.4823 16.9167 45.4021 16.9167 44.0657C16.9167 42.7293 15.834 41.649 14.5 41.649ZM45.9167 22.3157H43.5C42.166 22.3157 41.0833 23.3959 41.0833 24.7323C41.0833 26.0688 42.166 27.149 43.5 27.149H45.9167C47.2507 27.149 48.3333 26.0688 48.3333 24.7323C48.3333 23.3959 47.2507 22.3157 45.9167 22.3157Z" fill="#A30031"/>
</svg>
