<svg width="58" height="59" viewBox="0 0 58 59" fill="none" xmlns="http://www.w3.org/2000/svg">
<g clip-path="url(#clip0_6_252)">
<path d="M28.8743 58.5874L28.0188 58.208C27.0667 57.7899 4.83333 47.7487 4.83333 29.5657V13.7993C4.83418 12.2821 5.31373 10.8038 6.20368 9.57492C7.09363 8.34608 8.34862 7.42937 9.78992 6.95532L29 0.587402L48.2101 6.95532C49.6514 7.42937 50.9064 8.34608 51.7963 9.57492C52.6863 10.8038 53.1658 12.2821 53.1667 13.7993V29.5657C53.1667 50.2934 30.7207 57.9736 29.7637 58.2926L28.8743 58.5874ZM29 5.65515L11.3197 11.518C10.8386 11.6751 10.4196 11.9804 10.1227 12.3902C9.82577 12.8 9.66614 13.2933 9.66667 13.7993V29.5657C9.66667 42.8428 25.23 51.4558 29.1136 53.3964C32.9899 51.8377 48.3333 44.7012 48.3333 29.5657V13.7993C48.3339 13.2933 48.1742 12.8 47.8773 12.3902C47.5804 11.9804 47.1614 11.6751 46.6803 11.518L29 5.65515Z" fill="#007CA3"/>
<path d="M26.8516 35.7088H26.7718C26.1602 35.6995 25.5567 35.5661 24.998 35.3169C24.4394 35.0677 23.937 34.7077 23.5214 34.2588L17.9486 28.4588L21.431 25.119L26.854 30.774L39.3747 18.2532L42.7919 21.6704L30.0778 34.3845C29.6544 34.8076 29.1512 35.1425 28.5974 35.3698C28.0436 35.5972 27.4502 35.7124 26.8516 35.7088Z" fill="#3EA300"/>
</g>
<defs>
<clipPath id="clip0_6_252">
<rect width="58" height="58" fill="white" transform="translate(0 0.565674)"/>
</clipPath>
</defs>
</svg>
