<svg width="58" height="59" viewBox="0 0 58 59" fill="none" xmlns="http://www.w3.org/2000/svg">
<path d="M58.0003 15.0657V36.8157C58.0003 38.1497 56.92 39.2323 55.5836 39.2323C54.2472 39.2323 53.167 38.1497 53.167 36.8157V15.0657C53.167 14.3552 52.8552 13.6833 52.3139 13.2242C51.7629 12.7578 51.0548 12.5693 50.325 12.6828C49.2085 12.8641 48.3336 14.0241 48.3336 15.3243V24.7323C48.3336 26.0663 47.2534 27.149 45.917 27.149C44.5805 27.149 43.5003 26.0663 43.5003 24.7323V10.2323C43.5003 8.90076 42.4176 7.81567 41.0836 7.81567C39.7496 7.81567 38.667 8.90076 38.667 10.2323V24.7323C38.667 26.0663 37.5867 27.149 36.2503 27.149C34.9139 27.149 33.8336 26.0663 33.8336 24.7323V7.81567C33.8336 6.48409 32.751 5.39901 31.417 5.39901C30.083 5.39901 29.0003 6.48409 29.0003 7.81567V24.7323C29.0003 26.0663 27.9176 27.149 26.5836 27.149C25.2496 27.149 24.167 26.0663 24.167 24.7323V12.9076C24.167 11.6098 23.2921 10.4498 22.1732 10.2662C21.4361 10.1478 20.7329 10.3387 20.1843 10.8075C19.643 11.2667 19.3312 11.9385 19.3312 12.649V39.2323C19.3312 40.1942 18.7609 41.0642 17.8764 41.4484C16.9991 41.8303 15.9672 41.6563 15.264 40.9989L8.89121 35.0491C7.91971 34.1404 6.39237 34.1936 5.48371 35.1627C4.57262 36.139 4.62337 37.6736 5.59729 38.5871L16.3925 48.9957C19.5632 52.0503 23.732 53.7323 28.1327 53.7323H36.2455C37.5819 53.7323 38.6621 54.815 38.6621 56.149C38.6621 57.483 37.5819 58.5657 36.2455 58.5657H28.1327C22.4729 58.5657 17.1103 56.4028 13.0358 52.4733L2.26954 42.0888C-0.620794 39.3798 -0.770627 34.7808 1.95779 31.8639C4.68379 28.9446 9.27787 28.7899 12.1948 31.5183L14.5027 33.6716V12.649C14.5027 10.5199 15.4331 8.50684 17.0571 7.12451C18.6787 5.74459 20.8295 5.15251 22.9514 5.49567C23.4637 5.57784 23.9543 5.72042 24.4231 5.91376C25.2617 2.83492 28.0795 0.565674 31.4194 0.565674C33.9835 0.565674 36.2382 1.90451 37.5287 3.92001C38.58 3.32551 39.7931 2.98234 41.086 2.98234C44.4259 2.98234 47.2437 5.25159 48.0799 8.33042C48.5487 8.13951 49.0417 7.99692 49.5516 7.91476C51.6735 7.56917 53.8219 8.16367 55.4459 9.54359C57.0699 10.9235 58.0003 12.9342 58.0003 15.0657ZM39.943 37.5479L36.782 36.284L35.518 33.123C35.2425 32.4343 34.5755 31.9823 33.8336 31.9823C33.0917 31.9823 32.4247 32.4343 32.1492 33.123L30.8925 36.2671L27.7533 37.4561C27.0597 37.7171 26.5957 38.3768 26.5836 39.1163C26.5715 39.8583 27.009 40.5325 27.6929 40.8201L30.878 42.1638L32.1492 45.3441C32.4247 46.0328 33.0917 46.4848 33.8336 46.4848C34.5755 46.4848 35.2425 46.0328 35.518 45.3441L36.782 42.1831L39.943 40.9192C40.6317 40.6437 41.0836 39.9767 41.0836 39.2348C41.0836 38.4928 40.6317 37.8234 39.943 37.5479ZM56.6687 48.1426L52.9809 46.666L51.5043 42.9782C51.1829 42.1758 50.4047 41.649 49.5395 41.649C48.6744 41.649 47.8962 42.1758 47.5748 42.9782L46.1079 46.6467L42.4466 48.0338C41.637 48.3383 41.0981 49.1068 41.0812 49.972C41.0667 50.8372 41.579 51.625 42.3741 51.9585L46.091 53.5245L47.5748 57.2365C47.8962 58.0388 48.6744 58.5657 49.5395 58.5657C50.4047 58.5657 51.1829 58.0388 51.5043 57.2365L52.9809 53.5463L56.6687 52.0721C57.471 51.7507 57.9979 50.9725 57.9979 50.1073C57.9979 49.2422 57.471 48.464 56.6687 48.1426ZM0.923456 17.5959L3.57937 18.7148L4.63787 21.3659C4.86746 21.9387 5.42329 22.3157 6.03954 22.3157C6.65579 22.3157 7.21162 21.9387 7.44121 21.3659L8.49487 18.7318L11.129 17.6781C11.7018 17.4485 12.0788 16.8927 12.0788 16.2764C12.0788 15.6602 11.7018 15.1019 11.129 14.8748L8.49487 13.8211L7.44121 11.1869C7.21162 10.6142 6.65579 10.2372 6.03954 10.2372C5.42329 10.2372 4.86504 10.6142 4.63787 11.1869L3.59146 13.8066L0.976623 14.7974C0.399039 15.0101 0.0123727 15.5587 0.000289341 16.1773C-0.011794 16.796 0.355539 17.3567 0.923456 17.5959Z" fill="#A3009C"/>
</svg>
