<svg id="white" xmlns="http://www.w3.org/2000/svg" width="148.143" height="53" viewBox="0 0 148.143 53">
  <path id="Path_2" data-name="Path 2" d="M-39.917-20.3H-47.2V0h2.544V-7.3h4.734a6.465,6.465,0,0,0,6.738-6.5A6.466,6.466,0,0,0-39.917-20.3Zm-.132,10.539h-4.6v-8.074h4.6A4.027,4.027,0,0,1-35.776-13.8,4.027,4.027,0,0,1-40.049-9.761ZM-22.032.343a8.031,8.031,0,0,0,8.3-8.173A8.031,8.031,0,0,0-22.032-16a8.015,8.015,0,0,0-8.3,8.173A8.032,8.032,0,0,0-22.032.343Zm0-2.386A5.6,5.6,0,0,1-27.817-7.83a5.6,5.6,0,0,1,5.785-5.787A5.6,5.6,0,0,1-16.247-7.83a5.6,5.6,0,0,1-5.785,5.787Zm20.073-13.7a5.7,5.7,0,0,0-5,2.466l-.4-2.384h-1.75V0h2.465V-8.509c0-3.043,1.613-4.9,4.479-4.9h1.6v-2.333Zm23.288.188H16.45v-1.508c0-2.215.869-3.057,3.086-3.057H21.3v-1.989H19.086c-3.5,0-5.022,1.649-5.022,4.993v1.561H6.014v-3.429H5.681L.812-13.821v.336H3.549v8.012C3.549-2.079,5.626,0,8.989,0h2.055V-2.28H9.307A2.96,2.96,0,0,1,6.014-5.553v-7.932h8.05V0h2.465V-13.486h4.8Zm3.615-2.817h2.669V-21.2H24.944ZM25.046,0h2.465V-15.66H25.046ZM40.4.343a8.031,8.031,0,0,0,8.3-8.173A8.031,8.031,0,0,0,40.4-16,8.015,8.015,0,0,0,32.1-7.83,8.032,8.032,0,0,0,40.4.343Zm0-2.386A5.6,5.6,0,0,1,34.62-7.83,5.6,5.6,0,0,1,40.4-13.617,5.6,5.6,0,0,1,46.19-7.83,5.6,5.6,0,0,1,40.4-2.042Z" transform="translate(99.435 37)" fill="#fff"/>
  <path id="Shape_5" data-name="Shape 5" d="M219,117V95l21,11-.954.5.954.5-21,11Zm22-26,8-4,13,8-21,12ZM219,78l22-13V82l-8,5Z" transform="translate(-219 -65)" fill="#01b36d"/>
  <path id="Shape_3" data-name="Shape 3" d="M240,106.429V107L219,95V79l1,.571V79l21,12v16ZM241,82V65l21,13-13,9Z" transform="translate(-219 -65)" fill="#1ff3a0"/>
</svg>
